# xmcd
#
# Track frame offsets: 
#        150
#        24712
#        48625
#        69148
#        89675
#        115729
#        141960
#        160117
#        181224
#        202217
#        230318
#        256866
#        283448
#
# Disc length: 4050 seconds
#
# Revision: 1
# Processed by: cddbd v1.5.2PL0 Copyright (c) Steve Scherf et al.
# Submitted via: ExactAudioCopy v0.95a4
#
DISCID=be0fd00d
DTITLE=John Primer and The Real Deal Bluesband - That Will Never Do
DYEAR=2016
DGENRE=Blues
TTITLE0=That Will Never Do
TTITLE1=Mannish Boy
TTITLE2=Hold Me In Your Arms
TTITLE3=Forty Days and Forty Nights
TTITLE4=You Gonna Wreck My Life
TTITLE5=Cross My Heart
TTITLE6=Sittin' Here Waitin'
TTITLE7=Confessin' The Blues
TTITLE8=It's A Sin To Tell A Lie
TTITLE9=Hungry Country Girl
TTITLE10=Down In The Bottom
TTITLE11=Take The Bitter With The Sweet
TTITLE12=The Time Has Come
EXTD=
EXTT0=
EXTT1=
EXTT2=
EXTT3=
EXTT4=
EXTT5=
EXTT6=
EXTT7=
EXTT8=
EXTT9=
EXTT10=
EXTT11=
EXTT12=
PLAYORDER=
